<svg xmlns="http://www.w3.org/2000/svg" width="1920" height="1080" viewBox="0 0 1920 1080">

  <defs>
    <linearGradient id="city" x1="0" y1="0" x2="1" y2="1">
      <stop offset="0" stop-color="#08080d"/>
      <stop offset="0.42" stop-color="#17202a"/>
      <stop offset="1" stop-color="#3a1119"/>
    </linearGradient>
    <linearGradient id="gold" x1="0" y1="0" x2="1" y2="1">
      <stop offset="0" stop-color="#fff7c9"/>
      <stop offset="0.48" stop-color="#d5a83d"/>
      <stop offset="1" stop-color="#8b5d18"/>
    </linearGradient>
    <linearGradient id="porcelain" x1="0" y1="0" x2="1" y2="1">
      <stop offset="0" stop-color="#f7fbff"/>
      <stop offset="0.52" stop-color="#b9c6ce"/>
      <stop offset="1" stop-color="#59636a"/>
    </linearGradient>
    <filter id="softGlow"><feGaussianBlur stdDeviation="6" result="b"/><feMerge><feMergeNode in="b"/><feMergeNode in="SourceGraphic"/></feMerge></filter>
    <filter id="grain"><feTurbulence type="fractalNoise" baseFrequency="0.9" numOctaves="3" stitchTiles="stitch"/><feColorMatrix type="saturate" values="0"/><feComponentTransfer><feFuncA type="table" tableValues="0 0.13"/></feComponentTransfer></filter>
  </defs>

<rect width="1920" height="1080" fill="url(#city)"/>
<rect width="1920" height="1080" filter="url(#grain)" opacity=".55"/>
<g opacity=".92"><rect x="129" y="641" width="60" height="339" fill="#0b1017" stroke="#b9f2df" stroke-opacity=".18"/><path d="M137 673 h44 M137 725 h34" stroke="#f6e6b0" stroke-opacity=".16"/><rect x="302" y="588" width="98" height="392" fill="#0b1017" stroke="#b9f2df" stroke-opacity=".18"/><path d="M310 620 h78 M310 672 h74" stroke="#f6e6b0" stroke-opacity=".16"/><rect x="475" y="535" width="136" height="445" fill="#0b1017" stroke="#b9f2df" stroke-opacity=".18"/><path d="M483 567 h112 M483 619 h114" stroke="#f6e6b0" stroke-opacity=".16"/><rect x="648" y="482" width="174" height="498" fill="#0b1017" stroke="#b9f2df" stroke-opacity=".18"/><path d="M656 514 h146 M656 566 h34" stroke="#f6e6b0" stroke-opacity=".16"/><rect x="821" y="429" width="60" height="551" fill="#0b1017" stroke="#b9f2df" stroke-opacity=".18"/><path d="M829 461 h44 M829 513 h74" stroke="#f6e6b0" stroke-opacity=".16"/><rect x="994" y="376" width="98" height="604" fill="#0b1017" stroke="#b9f2df" stroke-opacity=".18"/><path d="M1002 408 h78 M1002 460 h114" stroke="#f6e6b0" stroke-opacity=".16"/><rect x="1167" y="323" width="136" height="657" fill="#0b1017" stroke="#b9f2df" stroke-opacity=".18"/><path d="M1175 355 h112 M1175 407 h34" stroke="#f6e6b0" stroke-opacity=".16"/><rect x="1340" y="790" width="174" height="190" fill="#0b1017" stroke="#b9f2df" stroke-opacity=".18"/><path d="M1348 822 h146 M1348 874 h74" stroke="#f6e6b0" stroke-opacity=".16"/><rect x="1513" y="737" width="60" height="243" fill="#0b1017" stroke="#b9f2df" stroke-opacity=".18"/><path d="M1521 769 h44 M1521 821 h114" stroke="#f6e6b0" stroke-opacity=".16"/><rect x="1686" y="684" width="98" height="296" fill="#0b1017" stroke="#b9f2df" stroke-opacity=".18"/><path d="M1694 716 h78 M1694 768 h34" stroke="#f6e6b0" stroke-opacity=".16"/><rect x="59" y="631" width="136" height="349" fill="#0b1017" stroke="#b9f2df" stroke-opacity=".18"/><path d="M67 663 h112 M67 715 h74" stroke="#f6e6b0" stroke-opacity=".16"/><rect x="232" y="578" width="174" height="402" fill="#0b1017" stroke="#b9f2df" stroke-opacity=".18"/><path d="M240 610 h146 M240 662 h114" stroke="#f6e6b0" stroke-opacity=".16"/><rect x="405" y="525" width="60" height="455" fill="#0b1017" stroke="#b9f2df" stroke-opacity=".18"/><path d="M413 557 h44 M413 609 h34" stroke="#f6e6b0" stroke-opacity=".16"/><rect x="578" y="472" width="98" height="508" fill="#0b1017" stroke="#b9f2df" stroke-opacity=".18"/><path d="M586 504 h78 M586 556 h74" stroke="#f6e6b0" stroke-opacity=".16"/><rect x="751" y="419" width="136" height="561" fill="#0b1017" stroke="#b9f2df" stroke-opacity=".18"/><path d="M759 451 h112 M759 503 h114" stroke="#f6e6b0" stroke-opacity=".16"/><rect x="924" y="366" width="174" height="614" fill="#0b1017" stroke="#b9f2df" stroke-opacity=".18"/><path d="M932 398 h146 M932 450 h34" stroke="#f6e6b0" stroke-opacity=".16"/></g>
<path d="M0 820 C260 760 430 890 720 815 C1040 730 1280 810 1920 690 L1920 1080 L0 1080 Z" fill="#06080d" opacity=".8"/>
<g filter="url(#softGlow)"><path d="M87 213 l-18 36" stroke="#b9f2df" stroke-opacity="0.080" stroke-width="1"/><path d="M224 424 l-18 53" stroke="#b9f2df" stroke-opacity="0.105" stroke-width="2"/><path d="M361 635 l-18 70" stroke="#b9f2df" stroke-opacity="0.130" stroke-width="3"/><path d="M498 846 l-18 87" stroke="#b9f2df" stroke-opacity="0.155" stroke-width="1"/><path d="M635 1057 l-18 104" stroke="#b9f2df" stroke-opacity="0.180" stroke-width="2"/><path d="M772 188 l-18 121" stroke="#b9f2df" stroke-opacity="0.080" stroke-width="3"/><path d="M909 399 l-18 48" stroke="#b9f2df" stroke-opacity="0.105" stroke-width="1"/><path d="M1046 610 l-18 65" stroke="#b9f2df" stroke-opacity="0.130" stroke-width="2"/><path d="M1183 821 l-18 82" stroke="#b9f2df" stroke-opacity="0.155" stroke-width="3"/><path d="M1320 1032 l-18 99" stroke="#b9f2df" stroke-opacity="0.180" stroke-width="1"/><path d="M1457 163 l-18 116" stroke="#b9f2df" stroke-opacity="0.080" stroke-width="2"/><path d="M1594 374 l-18 43" stroke="#b9f2df" stroke-opacity="0.105" stroke-width="3"/><path d="M1731 585 l-18 60" stroke="#b9f2df" stroke-opacity="0.130" stroke-width="1"/><path d="M1868 796 l-18 77" stroke="#b9f2df" stroke-opacity="0.155" stroke-width="2"/><path d="M85 1007 l-18 94" stroke="#b9f2df" stroke-opacity="0.180" stroke-width="3"/><path d="M222 138 l-18 111" stroke="#b9f2df" stroke-opacity="0.080" stroke-width="1"/><path d="M359 349 l-18 38" stroke="#b9f2df" stroke-opacity="0.105" stroke-width="2"/><path d="M496 560 l-18 55" stroke="#b9f2df" stroke-opacity="0.130" stroke-width="3"/><path d="M633 771 l-18 72" stroke="#b9f2df" stroke-opacity="0.155" stroke-width="1"/><path d="M770 982 l-18 89" stroke="#b9f2df" stroke-opacity="0.180" stroke-width="2"/><path d="M907 113 l-18 106" stroke="#b9f2df" stroke-opacity="0.080" stroke-width="3"/><path d="M1044 324 l-18 123" stroke="#b9f2df" stroke-opacity="0.105" stroke-width="1"/><path d="M1181 535 l-18 50" stroke="#b9f2df" stroke-opacity="0.130" stroke-width="2"/><path d="M1318 746 l-18 67" stroke="#b9f2df" stroke-opacity="0.155" stroke-width="3"/><path d="M1455 957 l-18 84" stroke="#b9f2df" stroke-opacity="0.180" stroke-width="1"/><path d="M1592 88 l-18 101" stroke="#b9f2df" stroke-opacity="0.080" stroke-width="2"/><path d="M1729 299 l-18 118" stroke="#b9f2df" stroke-opacity="0.105" stroke-width="3"/><path d="M1866 510 l-18 45" stroke="#b9f2df" stroke-opacity="0.130" stroke-width="1"/><path d="M83 721 l-18 62" stroke="#b9f2df" stroke-opacity="0.155" stroke-width="2"/><path d="M220 932 l-18 79" stroke="#b9f2df" stroke-opacity="0.180" stroke-width="3"/><path d="M357 63 l-18 96" stroke="#b9f2df" stroke-opacity="0.080" stroke-width="1"/><path d="M494 274 l-18 113" stroke="#b9f2df" stroke-opacity="0.105" stroke-width="2"/><path d="M631 485 l-18 40" stroke="#b9f2df" stroke-opacity="0.130" stroke-width="3"/><path d="M768 696 l-18 57" stroke="#b9f2df" stroke-opacity="0.155" stroke-width="1"/><path d="M905 907 l-18 74" stroke="#b9f2df" stroke-opacity="0.180" stroke-width="2"/><path d="M1042 38 l-18 91" stroke="#b9f2df" stroke-opacity="0.080" stroke-width="3"/><path d="M1179 249 l-18 108" stroke="#b9f2df" stroke-opacity="0.105" stroke-width="1"/><path d="M1316 460 l-18 125" stroke="#b9f2df" stroke-opacity="0.130" stroke-width="2"/><path d="M1453 671 l-18 52" stroke="#b9f2df" stroke-opacity="0.155" stroke-width="3"/><path d="M1590 882 l-18 69" stroke="#b9f2df" stroke-opacity="0.180" stroke-width="1"/><path d="M1727 13 l-18 86" stroke="#b9f2df" stroke-opacity="0.080" stroke-width="2"/><path d="M1864 224 l-18 103" stroke="#b9f2df" stroke-opacity="0.105" stroke-width="3"/><path d="M81 435 l-18 120" stroke="#b9f2df" stroke-opacity="0.130" stroke-width="1"/><path d="M218 646 l-18 47" stroke="#b9f2df" stroke-opacity="0.155" stroke-width="2"/><path d="M355 857 l-18 64" stroke="#b9f2df" stroke-opacity="0.180" stroke-width="3"/><path d="M492 1068 l-18 81" stroke="#b9f2df" stroke-opacity="0.080" stroke-width="1"/><path d="M629 199 l-18 98" stroke="#b9f2df" stroke-opacity="0.105" stroke-width="2"/><path d="M766 410 l-18 115" stroke="#b9f2df" stroke-opacity="0.130" stroke-width="3"/><path d="M903 621 l-18 42" stroke="#b9f2df" stroke-opacity="0.155" stroke-width="1"/><path d="M1040 832 l-18 59" stroke="#b9f2df" stroke-opacity="0.180" stroke-width="2"/><path d="M1177 1043 l-18 76" stroke="#b9f2df" stroke-opacity="0.080" stroke-width="3"/><path d="M1314 174 l-18 93" stroke="#b9f2df" stroke-opacity="0.105" stroke-width="1"/><path d="M1451 385 l-18 110" stroke="#b9f2df" stroke-opacity="0.130" stroke-width="2"/><path d="M1588 596 l-18 37" stroke="#b9f2df" stroke-opacity="0.155" stroke-width="3"/><path d="M1725 807 l-18 54" stroke="#b9f2df" stroke-opacity="0.180" stroke-width="1"/><path d="M1862 1018 l-18 71" stroke="#b9f2df" stroke-opacity="0.080" stroke-width="2"/><path d="M79 149 l-18 88" stroke="#b9f2df" stroke-opacity="0.105" stroke-width="3"/><path d="M216 360 l-18 105" stroke="#b9f2df" stroke-opacity="0.130" stroke-width="1"/><path d="M353 571 l-18 122" stroke="#b9f2df" stroke-opacity="0.155" stroke-width="2"/><path d="M490 782 l-18 49" stroke="#b9f2df" stroke-opacity="0.180" stroke-width="3"/><path d="M627 993 l-18 66" stroke="#b9f2df" stroke-opacity="0.080" stroke-width="1"/><path d="M764 124 l-18 83" stroke="#b9f2df" stroke-opacity="0.105" stroke-width="2"/><path d="M901 335 l-18 100" stroke="#b9f2df" stroke-opacity="0.130" stroke-width="3"/><path d="M1038 546 l-18 117" stroke="#b9f2df" stroke-opacity="0.155" stroke-width="1"/><path d="M1175 757 l-18 44" stroke="#b9f2df" stroke-opacity="0.180" stroke-width="2"/><path d="M1312 968 l-18 61" stroke="#b9f2df" stroke-opacity="0.080" stroke-width="3"/><path d="M1449 99 l-18 78" stroke="#b9f2df" stroke-opacity="0.105" stroke-width="1"/><path d="M1586 310 l-18 95" stroke="#b9f2df" stroke-opacity="0.130" stroke-width="2"/><path d="M1723 521 l-18 112" stroke="#b9f2df" stroke-opacity="0.155" stroke-width="3"/><path d="M1860 732 l-18 39" stroke="#b9f2df" stroke-opacity="0.180" stroke-width="1"/><path d="M77 943 l-18 56" stroke="#b9f2df" stroke-opacity="0.080" stroke-width="2"/><path d="M214 74 l-18 73" stroke="#b9f2df" stroke-opacity="0.105" stroke-width="3"/><path d="M351 285 l-18 90" stroke="#b9f2df" stroke-opacity="0.130" stroke-width="1"/><path d="M488 496 l-18 107" stroke="#b9f2df" stroke-opacity="0.155" stroke-width="2"/><path d="M625 707 l-18 124" stroke="#b9f2df" stroke-opacity="0.180" stroke-width="3"/><path d="M762 918 l-18 51" stroke="#b9f2df" stroke-opacity="0.080" stroke-width="1"/><path d="M899 49 l-18 68" stroke="#b9f2df" stroke-opacity="0.105" stroke-width="2"/><path d="M1036 260 l-18 85" stroke="#b9f2df" stroke-opacity="0.130" stroke-width="3"/><path d="M1173 471 l-18 102" stroke="#b9f2df" stroke-opacity="0.155" stroke-width="1"/><path d="M1310 682 l-18 119" stroke="#b9f2df" stroke-opacity="0.180" stroke-width="2"/><path d="M1447 893 l-18 46" stroke="#b9f2df" stroke-opacity="0.080" stroke-width="3"/><path d="M1584 24 l-18 63" stroke="#b9f2df" stroke-opacity="0.105" stroke-width="1"/><path d="M1721 235 l-18 80" stroke="#b9f2df" stroke-opacity="0.130" stroke-width="2"/><path d="M1858 446 l-18 97" stroke="#b9f2df" stroke-opacity="0.155" stroke-width="3"/><path d="M75 657 l-18 114" stroke="#b9f2df" stroke-opacity="0.180" stroke-width="1"/><path d="M212 868 l-18 41" stroke="#b9f2df" stroke-opacity="0.080" stroke-width="2"/><path d="M349 1079 l-18 58" stroke="#b9f2df" stroke-opacity="0.105" stroke-width="3"/><path d="M486 210 l-18 75" stroke="#b9f2df" stroke-opacity="0.130" stroke-width="1"/><path d="M623 421 l-18 92" stroke="#b9f2df" stroke-opacity="0.155" stroke-width="2"/><path d="M760 632 l-18 109" stroke="#b9f2df" stroke-opacity="0.180" stroke-width="3"/><path d="M897 843 l-18 36" stroke="#b9f2df" stroke-opacity="0.080" stroke-width="1"/><path d="M1034 1054 l-18 53" stroke="#b9f2df" stroke-opacity="0.105" stroke-width="2"/><path d="M1171 185 l-18 70" stroke="#b9f2df" stroke-opacity="0.130" stroke-width="3"/><path d="M1308 396 l-18 87" stroke="#b9f2df" stroke-opacity="0.155" stroke-width="1"/><path d="M1445 607 l-18 104" stroke="#b9f2df" stroke-opacity="0.180" stroke-width="2"/></g>
<path d="M0 1000 C480 960 930 1010 1920 930" stroke="#b9f2df" stroke-opacity=".28" stroke-width="3"/>
<text x="72" y="94" fill="#f6e6b0" opacity=".28" font-size="28" font-family="serif">LCE Laboratory</text>
</svg>
