<svg xmlns="http://www.w3.org/2000/svg" width="1920" height="1080" viewBox="0 0 1920 1080">

  <defs>
    <linearGradient id="city" x1="0" y1="0" x2="1" y2="1">
      <stop offset="0" stop-color="#08080d"/>
      <stop offset="0.42" stop-color="#17202a"/>
      <stop offset="1" stop-color="#3a1119"/>
    </linearGradient>
    <linearGradient id="gold" x1="0" y1="0" x2="1" y2="1">
      <stop offset="0" stop-color="#fff7c9"/>
      <stop offset="0.48" stop-color="#d5a83d"/>
      <stop offset="1" stop-color="#8b5d18"/>
    </linearGradient>
    <linearGradient id="porcelain" x1="0" y1="0" x2="1" y2="1">
      <stop offset="0" stop-color="#f7fbff"/>
      <stop offset="0.52" stop-color="#b9c6ce"/>
      <stop offset="1" stop-color="#59636a"/>
    </linearGradient>
    <filter id="softGlow"><feGaussianBlur stdDeviation="6" result="b"/><feMerge><feMergeNode in="b"/><feMergeNode in="SourceGraphic"/></feMerge></filter>
    <filter id="grain"><feTurbulence type="fractalNoise" baseFrequency="0.9" numOctaves="3" stitchTiles="stitch"/><feColorMatrix type="saturate" values="0"/><feComponentTransfer><feFuncA type="table" tableValues="0 0.13"/></feComponentTransfer></filter>
  </defs>

<rect width="1920" height="1080" fill="url(#city)"/>
<rect width="1920" height="1080" filter="url(#grain)" opacity=".45"/>
<path d="M0 780 C420 660 620 880 930 740 C1240 600 1500 700 1920 610 L1920 1080 L0 1080 Z" fill="#05070b" opacity=".88"/>
<g filter="url(#softGlow)"><path d="M976 180 C1066 100 1166 300 1286 200" stroke="#77b7d9" stroke-opacity=".22" stroke-width="2" fill="none"/><path d="M1073 227 C1163 147 1263 347 1383 247" stroke="#77b7d9" stroke-opacity=".22" stroke-width="3" fill="none"/><path d="M1170 274 C1260 194 1360 394 1480 294" stroke="#77b7d9" stroke-opacity=".22" stroke-width="4" fill="none"/><path d="M1267 321 C1357 241 1457 441 1577 341" stroke="#77b7d9" stroke-opacity=".22" stroke-width="5" fill="none"/><path d="M1364 368 C1454 288 1554 488 1674 388" stroke="#77b7d9" stroke-opacity=".22" stroke-width="2" fill="none"/><path d="M1461 415 C1551 335 1651 535 1771 435" stroke="#77b7d9" stroke-opacity=".22" stroke-width="3" fill="none"/><path d="M1558 462 C1648 382 1748 582 1868 482" stroke="#77b7d9" stroke-opacity=".22" stroke-width="4" fill="none"/><path d="M1655 509 C1745 429 1845 629 1965 529" stroke="#77b7d9" stroke-opacity=".22" stroke-width="5" fill="none"/><path d="M1752 556 C1842 476 1942 676 2062 576" stroke="#77b7d9" stroke-opacity=".22" stroke-width="2" fill="none"/><path d="M1849 603 C1939 523 2039 723 2159 623" stroke="#77b7d9" stroke-opacity=".22" stroke-width="3" fill="none"/><path d="M26 650 C116 570 216 770 336 670" stroke="#77b7d9" stroke-opacity=".22" stroke-width="4" fill="none"/><path d="M123 697 C213 617 313 817 433 717" stroke="#77b7d9" stroke-opacity=".22" stroke-width="5" fill="none"/><path d="M220 744 C310 664 410 864 530 764" stroke="#77b7d9" stroke-opacity=".22" stroke-width="2" fill="none"/><path d="M317 791 C407 711 507 911 627 811" stroke="#77b7d9" stroke-opacity=".22" stroke-width="3" fill="none"/><path d="M414 838 C504 758 604 958 724 858" stroke="#77b7d9" stroke-opacity=".22" stroke-width="4" fill="none"/><path d="M511 885 C601 805 701 1005 821 905" stroke="#77b7d9" stroke-opacity=".22" stroke-width="5" fill="none"/><path d="M608 932 C698 852 798 1052 918 952" stroke="#77b7d9" stroke-opacity=".22" stroke-width="2" fill="none"/><path d="M705 219 C795 139 895 339 1015 239" stroke="#77b7d9" stroke-opacity=".22" stroke-width="3" fill="none"/><path d="M802 266 C892 186 992 386 1112 286" stroke="#77b7d9" stroke-opacity=".22" stroke-width="4" fill="none"/><path d="M899 313 C989 233 1089 433 1209 333" stroke="#77b7d9" stroke-opacity=".22" stroke-width="5" fill="none"/></g>
<g><path d="M510 885 C450 610 580 500 700 560 C825 620 780 890 745 1010 L470 1010 Z" fill="#e8edf1" stroke="#77b7d9" stroke-opacity=".55" stroke-width="8"/><circle cx="620" cy="505" r="74" fill="#e8edf1" stroke="#e0b252" stroke-width="7"/><path d="M1110 885 C1050 610 1180 500 1300 560 C1425 620 1380 890 1345 1010 L1070 1010 Z" fill="#111820" stroke="#77b7d9" stroke-opacity=".55" stroke-width="8"/><circle cx="1220" cy="505" r="74" fill="#111820" stroke="#e0b252" stroke-width="7"/></g>
<path d="M0 0 H1920 V1080 H0 Z" fill="none" stroke="#77b7d9" stroke-opacity=".35" stroke-width="28"/>
<text x="96" y="120" fill="#f8edc6" opacity=".42" font-size="42" font-family="serif">Golden Bough Rebuild</text>
<text x="96" y="174" fill="#c7d7e8" opacity=".24" font-size="24" font-family="serif">city_rooftop</text>
</svg>
