<svg xmlns="http://www.w3.org/2000/svg" width="1920" height="1080" viewBox="0 0 1920 1080">

  <defs>
    <linearGradient id="city" x1="0" y1="0" x2="1" y2="1">
      <stop offset="0" stop-color="#08080d"/>
      <stop offset="0.42" stop-color="#17202a"/>
      <stop offset="1" stop-color="#3a1119"/>
    </linearGradient>
    <linearGradient id="gold" x1="0" y1="0" x2="1" y2="1">
      <stop offset="0" stop-color="#fff7c9"/>
      <stop offset="0.48" stop-color="#d5a83d"/>
      <stop offset="1" stop-color="#8b5d18"/>
    </linearGradient>
    <linearGradient id="porcelain" x1="0" y1="0" x2="1" y2="1">
      <stop offset="0" stop-color="#f7fbff"/>
      <stop offset="0.52" stop-color="#b9c6ce"/>
      <stop offset="1" stop-color="#59636a"/>
    </linearGradient>
    <filter id="softGlow"><feGaussianBlur stdDeviation="6" result="b"/><feMerge><feMergeNode in="b"/><feMergeNode in="SourceGraphic"/></feMerge></filter>
    <filter id="grain"><feTurbulence type="fractalNoise" baseFrequency="0.9" numOctaves="3" stitchTiles="stitch"/><feColorMatrix type="saturate" values="0"/><feComponentTransfer><feFuncA type="table" tableValues="0 0.13"/></feComponentTransfer></filter>
  </defs>

<rect width="1920" height="1080" fill="url(#city)"/>
<rect width="1920" height="1080" filter="url(#grain)" opacity=".45"/>
<path d="M0 780 C420 660 620 880 930 740 C1240 600 1500 700 1920 610 L1920 1080 L0 1080 Z" fill="#05070b" opacity=".88"/>
<g filter="url(#softGlow)"><path d="M1464 180 C1554 100 1654 300 1774 200" stroke="#b9f2df" stroke-opacity=".22" stroke-width="2" fill="none"/><path d="M1561 227 C1651 147 1751 347 1871 247" stroke="#b9f2df" stroke-opacity=".22" stroke-width="3" fill="none"/><path d="M1658 274 C1748 194 1848 394 1968 294" stroke="#b9f2df" stroke-opacity=".22" stroke-width="4" fill="none"/><path d="M1755 321 C1845 241 1945 441 2065 341" stroke="#b9f2df" stroke-opacity=".22" stroke-width="5" fill="none"/><path d="M1852 368 C1942 288 2042 488 2162 388" stroke="#b9f2df" stroke-opacity=".22" stroke-width="2" fill="none"/><path d="M29 415 C119 335 219 535 339 435" stroke="#b9f2df" stroke-opacity=".22" stroke-width="3" fill="none"/><path d="M126 462 C216 382 316 582 436 482" stroke="#b9f2df" stroke-opacity=".22" stroke-width="4" fill="none"/><path d="M223 509 C313 429 413 629 533 529" stroke="#b9f2df" stroke-opacity=".22" stroke-width="5" fill="none"/><path d="M320 556 C410 476 510 676 630 576" stroke="#b9f2df" stroke-opacity=".22" stroke-width="2" fill="none"/><path d="M417 603 C507 523 607 723 727 623" stroke="#b9f2df" stroke-opacity=".22" stroke-width="3" fill="none"/><path d="M514 650 C604 570 704 770 824 670" stroke="#b9f2df" stroke-opacity=".22" stroke-width="4" fill="none"/><path d="M611 697 C701 617 801 817 921 717" stroke="#b9f2df" stroke-opacity=".22" stroke-width="5" fill="none"/><path d="M708 744 C798 664 898 864 1018 764" stroke="#b9f2df" stroke-opacity=".22" stroke-width="2" fill="none"/><path d="M805 791 C895 711 995 911 1115 811" stroke="#b9f2df" stroke-opacity=".22" stroke-width="3" fill="none"/><path d="M902 838 C992 758 1092 958 1212 858" stroke="#b9f2df" stroke-opacity=".22" stroke-width="4" fill="none"/><path d="M999 885 C1089 805 1189 1005 1309 905" stroke="#b9f2df" stroke-opacity=".22" stroke-width="5" fill="none"/><path d="M1096 932 C1186 852 1286 1052 1406 952" stroke="#b9f2df" stroke-opacity=".22" stroke-width="2" fill="none"/><path d="M1193 219 C1283 139 1383 339 1503 239" stroke="#b9f2df" stroke-opacity=".22" stroke-width="3" fill="none"/><path d="M1290 266 C1380 186 1480 386 1600 286" stroke="#b9f2df" stroke-opacity=".22" stroke-width="4" fill="none"/><path d="M1387 313 C1477 233 1577 433 1697 333" stroke="#b9f2df" stroke-opacity=".22" stroke-width="5" fill="none"/></g>
<g><path d="M510 885 C450 610 580 500 700 560 C825 620 780 890 745 1010 L470 1010 Z" fill="#e8edf1" stroke="#b9f2df" stroke-opacity=".55" stroke-width="8"/><circle cx="620" cy="505" r="74" fill="#e8edf1" stroke="#e0b252" stroke-width="7"/><path d="M1110 885 C1050 610 1180 500 1300 560 C1425 620 1380 890 1345 1010 L1070 1010 Z" fill="#111820" stroke="#b9f2df" stroke-opacity=".55" stroke-width="8"/><circle cx="1220" cy="505" r="74" fill="#111820" stroke="#e0b252" stroke-width="7"/></g>
<path d="M0 0 H1920 V1080 H0 Z" fill="none" stroke="#b9f2df" stroke-opacity=".35" stroke-width="28"/>
<text x="96" y="120" fill="#f8edc6" opacity=".42" font-size="42" font-family="serif">Sinclair Flash</text>
<text x="96" y="174" fill="#c7d7e8" opacity=".24" font-size="24" font-family="serif">lce_lab</text>
</svg>
